<svg width="256" height="256" viewBox="0 0 256 256" fill="none" xmlns="http://www.w3.org/2000/svg">
<g filter="url(#filter0_i_1_19)">
<rect width="256" height="256" rx="64" fill="#2DD4BF"/>
<g filter="url(#filter1_i_1_19)">
<path d="M147.637 23.2474C172.004 23.2474 190.279 26.1087 202.463 31.8313C214.646 37.3693 220.738 46.3224 220.738 58.6906C220.738 70.8742 216.954 80.1965 209.385 86.6575C202.001 92.9339 193.51 96.0721 183.911 96.0721C174.311 96.0721 165.635 93.6723 157.882 88.8727C150.313 83.8885 145.052 77.3352 142.099 69.2128C135.268 69.2128 128.715 71.5203 122.439 76.1353C116.347 80.5657 112.47 86.3806 110.809 93.58C147.36 102.441 173.573 112.778 189.449 124.593C205.324 136.407 213.262 151.544 213.262 170.004C213.262 188.464 204.863 203.232 188.064 214.308C171.45 225.385 148.929 230.923 120.5 230.923C92.2566 230.923 72.2275 227.046 60.4131 219.293C48.5987 211.539 42.6915 201.294 42.6915 188.557C42.6915 175.819 46.6604 164.097 54.5982 153.39C58.4748 161.697 65.8588 169.174 76.7502 175.819C87.8262 182.465 98.7176 185.788 109.424 185.788C129.177 185.788 141.729 179.511 147.083 166.959C116.439 162.897 93.0873 154.406 77.0271 141.484C60.9669 128.377 52.9368 112.594 52.9368 94.1338C52.9368 81.7656 56.2596 70.7819 62.9052 61.1827C69.5508 51.3989 78.0424 43.9226 88.38 38.7538C108.686 28.4162 128.438 23.2474 147.637 23.2474Z" fill="white"/>
</g>
</g>
<defs>
<filter id="filter0_i_1_19" x="0" y="0" width="260" height="260" filterUnits="userSpaceOnUse" color-interpolation-filters="sRGB">
<feFlood flood-opacity="0" result="BackgroundImageFix"/>
<feBlend mode="normal" in="SourceGraphic" in2="BackgroundImageFix" result="shape"/>
<feColorMatrix in="SourceAlpha" type="matrix" values="0 0 0 0 0 0 0 0 0 0 0 0 0 0 0 0 0 0 127 0" result="hardAlpha"/>
<feOffset dx="4" dy="4"/>
<feGaussianBlur stdDeviation="7.5"/>
<feComposite in2="hardAlpha" operator="arithmetic" k2="-1" k3="1"/>
<feColorMatrix type="matrix" values="0 0 0 0 0 0 0 0 0 0 0 0 0 0 0 0 0 0 0.4 0"/>
<feBlend mode="normal" in2="shape" result="effect1_innerShadow_1_19"/>
</filter>
<filter id="filter1_i_1_19" x="42.6915" y="23.2474" width="178.047" height="215.675" filterUnits="userSpaceOnUse" color-interpolation-filters="sRGB">
<feFlood flood-opacity="0" result="BackgroundImageFix"/>
<feBlend mode="normal" in="SourceGraphic" in2="BackgroundImageFix" result="shape"/>
<feColorMatrix in="SourceAlpha" type="matrix" values="0 0 0 0 0 0 0 0 0 0 0 0 0 0 0 0 0 0 127 0" result="hardAlpha"/>
<feOffset dy="8"/>
<feGaussianBlur stdDeviation="5"/>
<feComposite in2="hardAlpha" operator="arithmetic" k2="-1" k3="1"/>
<feColorMatrix type="matrix" values="0 0 0 0 0 0 0 0 0 0 0 0 0 0 0 0 0 0 0.4 0"/>
<feBlend mode="normal" in2="shape" result="effect1_innerShadow_1_19"/>
</filter>
</defs>
</svg>
